<svg width="21" height="15" viewBox="0 0 21 15" fill="none" xmlns="http://www.w3.org/2000/svg">
<path d="M20.2867 7.09147C20.108 6.83483 15.8508 0.807617 10.4137 0.807617C4.97653 0.807617 0.719179 6.83484 0.540702 7.09122C0.371483 7.33469 0.371483 7.66491 0.540702 7.90838C0.719179 8.16502 4.97653 14.1922 10.4137 14.1922C15.8508 14.1922 20.108 8.16498 20.2867 7.90859C20.4561 7.66516 20.4561 7.33469 20.2867 7.09147ZM10.4137 12.8076C6.40864 12.8076 2.93985 8.80724 1.91301 7.49945C2.93852 6.19052 6.40005 2.19223 10.4137 2.19223C14.4185 2.19223 17.8871 6.19191 18.9144 7.5004C17.8889 8.80929 14.4273 12.8076 10.4137 12.8076Z" fill="#CDCDCD"/>
</svg>
